<svg width="22" height="22" viewBox="0 0 22 22" fill="none" xmlns="http://www.w3.org/2000/svg">
<path d="M0.75 14.75C0.75 11.9216 0.75 10.5074 1.62868 9.6287C2.50736 8.75 3.92157 8.75 6.75 8.75H14.75C17.5784 8.75 18.9926 8.75 19.8713 9.6287C20.75 10.5074 20.75 11.9216 20.75 14.75C20.75 17.5784 20.75 18.9926 19.8713 19.8713C18.9926 20.75 17.5784 20.75 14.75 20.75H6.75C3.92157 20.75 2.50736 20.75 1.62868 19.8713C0.75 18.9926 0.75 17.5784 0.75 14.75Z" stroke="#FFF100" stroke-width="1.5"/>
<path d="M10.75 16.75C11.8546 16.75 12.75 15.8546 12.75 14.75C12.75 13.6454 11.8546 12.75 10.75 12.75C9.64543 12.75 8.75 13.6454 8.75 14.75C8.75 15.8546 9.64543 16.75 10.75 16.75Z" stroke="#FFF100" stroke-width="1.5"/>
<path d="M4.75 8.75V6.75C4.75 3.43629 7.43629 0.75 10.75 0.75C14.0637 0.75 16.75 3.43629 16.75 6.75V8.75" stroke="#FFF100" stroke-width="1.5" stroke-linecap="round"/>
</svg>
