<svg width="20" height="20" viewBox="0 0 20 20" fill="none" xmlns="http://www.w3.org/2000/svg">
<path d="M9.99942 1.33841e-05C9.56135 -1.10716e-05 9.2767 0.202974 8.97673 0.413616C8.67676 0.624247 8.38007 0.88354 8.08963 1.14546C7.79919 1.40741 7.51805 1.66869 7.27837 1.87501C7.03866 2.08124 6.81184 2.22953 6.78311 2.24151C6.75445 2.25374 6.49278 2.30812 6.17754 2.33226C5.86212 2.35576 5.47651 2.36612 5.0859 2.38627C4.69529 2.4065 4.29895 2.43322 3.93795 2.49656C3.57689 2.55968 3.23881 2.61884 2.92904 2.92855C2.61928 3.23825 2.55905 3.58206 2.49584 3.94302C2.43264 4.30401 2.40451 4.69791 2.38437 5.08847C2.36413 5.47901 2.35392 5.86574 2.33035 6.18107C2.30678 6.49641 2.24803 6.7578 2.23614 6.78654C2.22435 6.81527 2.08053 7.03982 1.87417 7.27942C1.66782 7.51906 1.40072 7.80131 1.13875 8.09169C0.876803 8.38213 0.620825 8.67985 0.410227 8.97979C0.199627 9.27972 2.22371e-06 9.56432 0 10.0023C-4.44719e-06 10.4403 0.198437 10.7215 0.409078 11.0214C0.619678 11.3213 0.880239 11.6225 1.1422 11.9129C1.40417 12.2033 1.66552 12.4844 1.87188 12.724C2.07823 12.9637 2.22538 13.1859 2.23729 13.2146C2.24907 13.2434 2.3056 13.5094 2.32921 13.8247C2.35278 14.14 2.36308 14.5244 2.38322 14.915C2.40346 15.3055 2.43261 15.6972 2.49583 16.0581C2.55903 16.4191 2.61929 16.7618 2.92904 17.0715C3.23879 17.3812 3.5792 17.4425 3.94024 17.5057C4.30129 17.569 4.69413 17.597 5.08474 17.6172C5.47534 17.6372 5.86328 17.6465 6.17868 17.67C6.49411 17.6937 6.75435 17.7489 6.7831 17.7608C6.81212 17.7737 7.03756 17.9211 7.27721 18.1273C7.5169 18.3336 7.79802 18.5961 8.08847 18.858C8.37893 19.1199 8.67788 19.3804 8.97787 19.591C9.27786 19.8016 9.56135 20 9.99942 20C10.4375 20 10.7233 19.8016 11.0233 19.591C11.3232 19.3804 11.6199 19.1211 11.9104 18.8591C12.2008 18.5972 12.4819 18.3313 12.7216 18.125C12.9613 17.9188 13.1847 17.7761 13.2134 17.7642C13.2421 17.752 13.5072 17.6965 13.8225 17.6723C14.1379 17.6488 14.5223 17.6338 14.9129 17.6138C15.3036 17.5935 15.701 17.5668 16.062 17.5035C16.4231 17.4403 16.76 17.3812 17.0698 17.0715C17.3796 16.7618 17.4421 16.4214 17.5053 16.0604C17.5685 15.6995 17.5955 15.3021 17.6156 14.9115C17.6359 14.521 17.6461 14.1389 17.6696 13.8235C17.6932 13.5082 17.7508 13.2422 17.7627 13.2135C17.7745 13.1848 17.9183 12.9602 18.1247 12.7206C18.331 12.481 18.5993 12.2022 18.8612 11.9118C19.1232 11.6213 19.3803 11.3248 19.5909 11.0248C19.8015 10.7249 20 10.4403 20 10.0023C20 9.56433 19.8016 9.27856 19.5909 8.97865C19.3803 8.6787 19.1209 8.3821 18.8589 8.0917C18.597 7.80132 18.3345 7.52023 18.1281 7.28058C17.9218 7.04094 17.7735 6.81416 17.7616 6.7854C17.7498 6.75659 17.6955 6.49527 17.6719 6.17993C17.6484 5.86459 17.6335 5.48017 17.6133 5.08963C17.5931 4.69907 17.5662 4.30286 17.503 3.94188C17.4398 3.5809 17.3796 3.23943 17.0698 2.9297C16.7601 2.62 16.4208 2.56209 16.0598 2.49887C15.6987 2.43564 15.3059 2.40758 14.9153 2.38742C14.5247 2.36741 14.1356 2.35353 13.8202 2.32997C13.5047 2.30629 13.2457 2.25226 13.2169 2.24035C13.1879 2.22745 12.9624 2.07894 12.7228 1.8727C12.4831 1.66638 12.2008 1.40392 11.9104 1.142C11.6199 0.88009 11.3221 0.619571 11.0221 0.409007C10.7221 0.198443 10.4375 1.33841e-05 9.99942 1.33841e-05ZM10.0016 1.18797C10.0426 1.20776 10.1833 1.25925 10.3452 1.37295C10.5683 1.52953 10.8422 1.76736 11.1209 2.01863C11.3995 2.2699 11.6858 2.53476 11.9551 2.76656C12.2244 2.99834 12.4524 3.1972 12.7664 3.32722C13.0803 3.45717 13.3807 3.47653 13.7351 3.50299C14.0894 3.52938 14.4784 3.54457 14.8531 3.56389C15.2278 3.58323 15.589 3.60764 15.8574 3.65464C16.0534 3.68899 16.1903 3.75415 16.2332 3.76954C16.2468 3.81164 16.3092 3.94815 16.3435 4.14408C16.3905 4.41252 16.4218 4.7724 16.4412 5.14706C16.4605 5.52171 16.4721 5.91069 16.4986 6.26494C16.5251 6.61921 16.5433 6.92418 16.6733 7.23805C16.8034 7.55194 17.0045 7.77651 17.2363 8.04573C17.4682 8.31495 17.7343 8.60008 17.9856 8.87868C18.2369 9.15727 18.4736 9.43112 18.6302 9.65418C18.7445 9.81697 18.7954 9.96024 18.8152 10.0012C18.7948 10.0407 18.7416 10.1846 18.6268 10.3481C18.4702 10.5712 18.2357 10.8439 17.9844 11.1225C17.7331 11.4011 17.4682 11.6873 17.2364 11.9566C17.0045 12.2258 16.8056 12.4492 16.6756 12.7631C16.5456 13.077 16.5263 13.3819 16.4998 13.7362C16.4733 14.0905 16.4594 14.4794 16.44 14.8541C16.4207 15.2288 16.3917 15.5909 16.3447 15.8594C16.3104 16.0552 16.2463 16.1913 16.2321 16.2339C16.1887 16.2479 16.0511 16.311 15.8552 16.3454C15.5867 16.3924 15.229 16.4191 14.8543 16.4384C14.4796 16.4578 14.0871 16.4695 13.7328 16.4959C13.3785 16.5225 13.078 16.545 12.7641 16.6751C12.4501 16.805 12.221 17.0018 11.9517 17.2335C11.6824 17.4654 11.4018 17.7348 11.1232 17.986C10.8445 18.2372 10.5695 18.4694 10.3464 18.626C10.1836 18.7403 10.0411 18.7945 10.0005 18.8155C9.96015 18.7948 9.81748 18.7413 9.65465 18.6271C9.43156 18.4705 9.1588 18.2361 8.88016 17.9848C8.60152 17.7336 8.31405 17.4653 8.04477 17.2335C7.77552 17.0017 7.54859 16.8074 7.23466 16.6774C6.92075 16.5475 6.618 16.5223 6.26368 16.4959C5.90937 16.4695 5.52264 16.4601 5.1479 16.4407C4.77318 16.4214 4.41093 16.3924 4.14245 16.3454C3.94654 16.311 3.80922 16.2481 3.76669 16.2339C3.75268 16.1907 3.68953 16.0519 3.65522 15.8559C3.60821 15.5875 3.57688 15.2276 3.55754 14.853C3.53819 14.4783 3.52772 14.0894 3.50123 13.7351C3.47475 13.3808 3.45658 13.0793 3.32657 12.7654C3.19653 12.4515 2.99419 12.2235 2.76236 11.9543C2.53054 11.6851 2.26446 11.3999 2.01315 11.1213C1.76185 10.8427 1.52627 10.5689 1.36966 10.3458C1.25546 10.1832 1.2042 10.0421 1.18465 10.0023C1.20422 9.96217 1.25541 9.82032 1.36966 9.65765C1.52625 9.43456 1.763 9.15614 2.0143 8.87755C2.2656 8.59893 2.53169 8.31726 2.76351 8.04805C2.99533 7.77879 3.19424 7.5508 3.32427 7.23693C3.45429 6.92304 3.47361 6.62266 3.50007 6.26841C3.52653 5.91413 3.54165 5.5252 3.56098 5.15053C3.58032 4.77586 3.60818 4.41367 3.65519 4.14525C3.6895 3.94933 3.75363 3.81206 3.7678 3.76956C3.81078 3.75444 3.94876 3.68901 4.1447 3.65466C4.41316 3.60759 4.7697 3.58096 5.14441 3.56159C5.51913 3.54225 5.91273 3.53056 6.26708 3.50414C6.62138 3.47758 6.92066 3.45483 7.23462 3.32493C7.54857 3.19502 7.77775 2.9983 8.04703 2.76656C8.31627 2.5347 8.59804 2.26991 8.87667 2.01863C9.15533 1.76744 9.42923 1.53068 9.65231 1.3741C9.81695 1.25847 9.96268 1.20727 10.0016 1.18797ZM7.3369 5.2252C6.79801 5.2372 6.26371 5.44688 5.85572 5.85479C5.0134 6.69696 5.0134 8.08363 5.85572 8.92579C6.69803 9.76796 8.08034 9.76451 8.92265 8.92224C9.76496 8.08007 9.76496 6.70029 8.92265 5.85813C8.48833 5.42389 7.91055 5.21242 7.3369 5.2252ZM13.0697 6.34537C12.9922 6.34538 12.9154 6.36071 12.8439 6.39049C12.7723 6.42026 12.7073 6.46388 12.6526 6.51885L6.51644 12.6505C6.46148 12.7052 6.41786 12.7702 6.3881 12.8417C6.35834 12.9133 6.34302 12.99 6.34302 13.0676C6.34302 13.1451 6.35834 13.2218 6.3881 13.2934C6.41786 13.365 6.46148 13.4299 6.51644 13.4846C6.62668 13.5942 6.77582 13.6557 6.93127 13.6557C7.08672 13.6557 7.23586 13.5942 7.34609 13.4846L13.4823 7.34835C13.5919 7.23813 13.6534 7.08903 13.6534 6.9336C13.6534 6.77818 13.5919 6.62907 13.4823 6.51885C13.373 6.40895 13.2247 6.34661 13.0697 6.34537ZM7.38976 6.39361C7.64246 6.39438 7.89438 6.49375 8.0907 6.69003C8.48335 7.08261 8.48335 7.69796 8.0907 8.09054C7.69806 8.48311 7.08031 8.48541 6.68766 8.09276C6.29501 7.70018 6.29501 7.07908 6.68766 6.68651C6.88398 6.49022 7.13706 6.39285 7.38976 6.39361ZM12.6112 10.4458C12.0556 10.4458 11.5007 10.6566 11.0795 11.0777C10.2372 11.9198 10.2337 13.3031 11.0759 14.1452C11.9183 14.9874 13.304 14.9874 14.1463 14.1452C14.9886 13.3031 14.9863 11.9198 14.1441 11.0777C13.7229 10.6566 13.1669 10.4458 12.6112 10.4458ZM12.6101 11.6142C12.8628 11.615 13.1147 11.7132 13.311 11.9095C13.7037 12.302 13.7071 12.9208 13.3144 13.3134C12.9217 13.706 12.3005 13.706 11.9079 13.3134C11.5152 12.9208 11.5152 12.2997 11.9079 11.9072C12.1042 11.7109 12.3574 11.6134 12.6101 11.6142Z" fill="#FFF100"/>
</svg>
